<?xml version="1.0" standalone="no"?>
<!DOCTYPE svg PUBLIC "-//W3C//DTD SVG 20010904//EN"
 "http://www.w3.org/TR/2001/REC-SVG-20010904/DTD/svg10.dtd">
<svg version="1.0" xmlns="http://www.w3.org/2000/svg"
 width="1024.000000pt" height="1024.000000pt" viewBox="0 0 1024.000000 1024.000000"
 preserveAspectRatio="xMidYMid meet">
<metadata>
Created by potrace 1.14, written by Peter Selinger 2001-2017
</metadata>
<g transform="translate(0.000000,1024.000000) scale(0.100000,-0.100000)"
fill="#000000" stroke="none">
<path d="M4911 9600 c-7 -4 -43 -8 -80 -9 -37 -1 -78 -3 -92 -6 -13 -2 -54 -6
-92 -10 -37 -3 -75 -9 -84 -12 -12 -5 -14 -3 -8 8 7 11 6 12 -6 2 -8 -6 -36
-14 -64 -18 -27 -4 -61 -9 -75 -11 -14 -2 -43 -6 -65 -9 -22 -3 -51 -8 -65
-11 -40 -9 -113 -25 -140 -30 -14 -3 -61 -15 -105 -26 -44 -12 -92 -21 -107
-22 -14 0 -24 -4 -22 -7 3 -6 -24 -14 -106 -34 -27 -7 -264 -92 -329 -118 -36
-14 -68 -24 -73 -21 -4 3 -8 1 -8 -4 0 -13 -98 -54 -111 -46 -7 4 -9 3 -6 -3
8 -12 -69 -47 -84 -37 -7 4 -9 3 -6 -2 6 -10 -220 -130 -240 -128 -7 1 -10 -2
-8 -7 7 -10 -50 -41 -59 -32 -3 4 -6 1 -6 -5 0 -16 -58 -44 -73 -36 -7 4 -9 4
-5 -1 10 -11 -84 -76 -100 -70 -7 3 -10 1 -7 -5 3 -5 -9 -17 -27 -26 -18 -9
-35 -20 -38 -23 -3 -4 -20 -18 -39 -30 -27 -20 -35 -21 -43 -10 -8 11 -9 10
-4 -4 4 -12 -6 -25 -37 -44 -23 -16 -44 -30 -47 -33 -3 -3 -34 -28 -70 -55
-84 -65 -106 -83 -154 -126 -23 -20 -52 -44 -65 -55 -21 -18 -114 -104 -204
-190 -20 -20 -37 -41 -37 -45 0 -5 -7 -9 -15 -9 -8 0 -15 -4 -15 -8 0 -4 -17
-26 -37 -48 -44 -46 -161 -178 -189 -213 -10 -13 -36 -44 -56 -68 -21 -24 -38
-47 -38 -51 0 -4 -19 -27 -41 -52 -23 -25 -40 -46 -38 -47 2 -1 -4 -12 -14
-23 -9 -11 -17 -23 -17 -26 0 -4 -10 -15 -22 -25 -11 -11 -18 -19 -15 -19 5 0
-86 -146 -110 -175 -4 -6 -18 -28 -30 -50 -13 -22 -28 -39 -34 -37 -6 1 -8 -2
-4 -7 7 -13 -49 -113 -59 -104 -4 4 -4 0 0 -10 3 -10 1 -17 -6 -17 -6 0 -9 -4
-6 -9 3 -5 -3 -20 -14 -34 -11 -14 -20 -32 -20 -41 0 -8 -6 -19 -14 -23 -8 -4
-14 -12 -14 -16 0 -16 -25 -67 -33 -67 -5 0 -8 -3 -8 -7 3 -20 -2 -34 -10 -29
-5 4 -7 -2 -4 -12 2 -11 -3 -26 -12 -35 -8 -9 -16 -20 -17 -24 -4 -27 -12 -43
-20 -43 -5 0 -7 -4 -3 -9 7 -12 -15 -61 -28 -61 -6 0 -8 -3 -5 -6 8 -7 -21
-94 -31 -94 -4 0 -8 -8 -9 -17 -3 -27 -48 -154 -53 -149 -2 2 -5 -8 -6 -22 0
-15 -6 -28 -12 -30 -6 -2 -9 -7 -6 -12 2 -4 -2 -27 -9 -51 -8 -24 -17 -57 -20
-72 -4 -15 -11 -25 -16 -22 -6 3 -7 -1 -4 -10 4 -8 -1 -38 -10 -65 -9 -27 -17
-61 -18 -75 -1 -14 -6 -25 -10 -25 -4 0 -7 -3 -6 -7 1 -6 -11 -80 -17 -103 -2
-7 -17 -80 -21 -105 -14 -76 -17 -84 -28 -78 -8 4 -8 3 0 -6 11 -12 -3 -113
-20 -140 -7 -10 -6 -12 4 -6 8 5 11 4 7 -1 -3 -5 -9 -37 -13 -69 -4 -33 -8
-69 -9 -80 -1 -11 -3 -37 -4 -58 -1 -26 -5 -36 -13 -31 -7 5 -8 3 -3 -6 5 -8
7 -39 5 -69 -1 -31 -3 -71 -4 -88 0 -18 -5 -33 -10 -33 -4 0 -3 -6 3 -14 8
-10 9 -16 1 -21 -7 -4 -7 -12 0 -24 5 -10 7 -21 4 -24 -9 -9 -10 -237 -1 -237
4 0 3 -9 -3 -20 -8 -15 -8 -20 1 -20 8 0 8 -4 -1 -15 -9 -10 -9 -15 -1 -15 13
0 10 -22 -4 -32 -6 -5 -6 -8 1 -8 10 0 15 -50 18 -187 1 -29 3 -53 6 -53 3 0
7 -23 8 -51 0 -28 4 -54 7 -57 2 -3 -1 -12 -8 -20 -9 -13 -9 -14 1 -8 6 4 12
4 13 -1 0 -4 2 -24 4 -43 2 -19 6 -48 9 -65 3 -16 8 -48 12 -69 6 -32 5 -38
-7 -32 -8 4 -6 1 3 -7 20 -16 34 -77 17 -77 -6 0 -3 -7 6 -16 9 -10 14 -25 12
-35 -3 -10 -1 -19 4 -21 4 -2 9 -20 11 -40 1 -21 5 -38 8 -38 8 0 10 -10 13
-62 1 -20 5 -34 10 -31 7 4 11 -27 8 -54 -1 -7 3 -13 8 -13 5 0 15 -25 21 -55
13 -61 12 -71 -2 -67 -5 1 -7 -2 -3 -7 3 -6 13 -7 22 -4 12 5 15 2 10 -10 -3
-8 -2 -17 3 -19 5 -2 11 -12 13 -23 2 -11 14 -51 27 -90 13 -38 22 -72 21 -74
-2 -2 3 -8 11 -12 11 -7 10 -11 -2 -19 -13 -8 -13 -10 1 -10 17 0 42 -66 32
-83 -3 -6 -2 -8 3 -4 5 3 17 -12 26 -34 11 -25 12 -37 5 -33 -7 3 -4 -1 5 -9
10 -8 18 -18 18 -23 0 -5 10 -29 22 -54 12 -25 26 -56 32 -70 6 -14 14 -27 17
-30 4 -3 9 -14 11 -25 1 -11 6 -22 9 -25 3 -3 30 -52 60 -110 29 -58 56 -107
60 -110 16 -14 68 -123 63 -132 -4 -6 -2 -8 3 -5 14 9 66 -70 57 -85 -4 -7 -3
-8 4 -4 13 8 31 -23 25 -42 -3 -7 0 -11 7 -10 7 2 17 -6 23 -17 7 -10 29 -41
50 -68 20 -27 37 -52 37 -55 0 -4 11 -20 25 -36 14 -17 23 -36 21 -42 -3 -8 1
-11 10 -7 13 5 19 -8 15 -30 -1 -5 2 -6 7 -3 13 8 54 -52 46 -66 -4 -6 -3 -8
3 -5 11 7 90 -81 85 -96 -1 -5 2 -5 8 -2 7 4 14 -2 17 -14 3 -12 10 -21 15
-21 12 0 54 -52 50 -62 -1 -5 4 -8 12 -8 14 0 52 -49 48 -63 -1 -4 4 -6 10 -5
7 2 12 -3 10 -10 -1 -6 4 -11 10 -10 7 2 12 -3 10 -10 -1 -8 1 -11 6 -8 10 6
92 -77 92 -94 0 -6 4 -9 8 -6 5 3 19 -6 30 -19 12 -14 27 -25 33 -25 6 0 9 -7
6 -14 -4 -11 -1 -13 10 -9 11 4 14 2 9 -5 -4 -7 -1 -12 10 -12 13 0 14 -3 5
-14 -10 -12 -9 -14 6 -10 11 2 36 -13 67 -41 l49 -45 -19 -22 -19 -23 21 17
c27 24 30 23 64 -12 17 -17 30 -28 30 -24 0 4 10 -4 23 -18 12 -13 31 -27 40
-31 11 -4 15 -12 11 -18 -4 -8 -3 -9 4 -5 7 4 25 -7 42 -24 16 -17 30 -28 30
-25 0 3 11 -2 25 -11 14 -9 22 -21 18 -27 -3 -5 -1 -7 5 -3 6 3 17 -1 25 -9 9
-8 20 -15 26 -15 6 0 11 -4 11 -10 0 -5 6 -10 14 -10 7 0 20 -7 27 -16 7 -9
24 -20 37 -25 14 -5 20 -14 16 -21 -4 -6 -3 -8 4 -4 6 3 18 -2 28 -11 10 -10
20 -17 23 -16 11 3 90 -51 85 -58 -2 -4 1 -11 7 -15 8 -4 9 -3 5 4 -4 7 -3 12
3 12 5 0 15 -8 20 -17 6 -10 11 -15 11 -10 0 11 60 -22 60 -34 0 -6 4 -8 9 -4
5 3 15 0 23 -7 7 -7 20 -14 28 -16 8 -2 17 -7 20 -12 3 -4 14 -10 25 -12 11
-2 19 -10 17 -17 -1 -7 2 -10 7 -7 11 7 101 -34 101 -46 0 -4 7 -8 15 -8 17 0
56 -20 66 -33 3 -5 9 -8 13 -8 25 4 36 -1 36 -16 0 -15 2 -16 10 -3 8 12 10
12 10 -5 0 -17 2 -18 11 -5 8 11 12 12 16 3 2 -7 11 -13 19 -13 8 0 14 -5 14
-11 0 -5 4 -7 10 -4 19 12 47 -13 45 -40 -2 -14 1 -23 5 -20 5 3 7 12 3 20 -3
10 2 15 16 15 23 0 27 -9 11 -28 -5 -7 -3 -6 7 2 14 13 21 13 57 -1 23 -9 47
-23 54 -31 6 -9 12 -11 12 -5 0 7 24 2 62 -13 34 -13 68 -24 75 -24 8 0 12 -3
10 -7 -3 -5 11 -9 31 -11 20 -1 41 -7 46 -12 6 -6 18 -10 29 -10 10 0 16 -3
14 -8 -3 -4 11 -8 31 -9 19 -1 39 -8 43 -15 7 -10 9 -10 9 1 0 12 3 12 12 3 7
-7 23 -12 36 -12 13 0 21 -4 17 -9 -3 -5 0 -13 6 -17 8 -5 9 -3 5 5 -6 9 1 11
31 5 21 -4 48 -11 61 -15 13 -5 34 -9 48 -9 13 0 24 -5 24 -11 0 -5 4 -8 10
-4 13 8 61 -5 54 -16 -3 -5 0 -9 5 -9 6 0 11 6 11 13 0 8 3 9 8 1 4 -6 16 -10
26 -8 26 4 58 -14 50 -28 -4 -7 -3 -8 5 -4 6 4 9 12 6 17 -4 5 -1 9 4 9 6 0
11 -3 11 -7 0 -5 17 -8 38 -9 20 0 60 -3 87 -7 28 -3 56 -6 63 -6 7 -1 10 -6
7 -11 -3 -6 -2 -10 4 -10 5 0 12 6 14 13 3 6 6 7 6 1 1 -6 14 -9 31 -6 17 2
36 -1 44 -7 9 -8 16 -8 20 -2 4 6 13 8 20 5 17 -6 67 -12 119 -13 21 -1 36 -5
33 -9 -3 -5 1 -9 9 -9 8 0 12 4 10 7 -8 13 73 4 89 -9 14 -12 16 -11 10 4 -6
15 -4 16 14 6 17 -9 22 -9 22 0 0 6 8 3 18 -8 9 -10 13 -13 8 -6 -6 9 -3 13 7
13 8 0 18 -6 20 -12 4 -10 6 -9 6 1 1 11 4 11 18 0 9 -8 14 -9 10 -3 -5 8 18
11 76 9 45 -1 90 2 99 6 10 6 19 5 23 -1 4 -6 12 -7 18 -3 19 11 100 11 116
-1 11 -8 13 -8 7 2 -5 9 4 12 36 14 125 4 184 10 247 24 18 4 22 2 18 -10 -4
-10 -1 -13 8 -9 8 3 13 9 10 13 -2 4 12 10 32 13 24 4 40 2 45 -6 5 -8 8 -6 8
6 0 10 4 16 9 13 4 -3 22 -1 40 4 22 6 31 5 31 -3 0 -9 2 -9 8 -1 4 7 25 14
47 18 22 3 56 10 75 14 19 5 37 9 40 9 3 0 16 3 29 8 16 5 26 3 32 -6 7 -11 9
-10 9 5 0 15 6 17 29 14 18 -3 28 0 24 6 -4 5 1 7 10 3 10 -3 17 -3 17 2 0 4
7 8 15 8 13 0 12 -4 -2 -21 -11 -13 -7 -12 12 5 34 30 70 46 59 26 -4 -6 1 -5
12 4 10 9 31 16 46 15 14 -1 24 3 21 8 -4 5 3 7 15 4 12 -3 23 -1 24 4 2 6 16
11 31 11 16 0 24 4 20 10 -4 6 0 8 10 4 10 -3 17 -2 17 3 0 6 5 10 11 10 6 0
9 -6 6 -13 -3 -8 1 -14 8 -14 7 0 11 6 8 14 -7 17 38 34 55 20 10 -8 12 -7 10
2 -2 8 14 19 37 27 22 7 47 18 56 23 18 10 88 31 103 30 5 0 12 3 15 8 9 14
91 44 102 38 5 -4 9 0 9 9 0 13 52 33 73 28 4 -1 7 2 7 8 0 5 17 16 38 25 20
9 45 21 55 26 10 5 23 7 29 3 6 -4 9 -3 5 2 -3 5 21 23 54 40 32 17 59 27 59
21 0 -7 7 -2 15 10 10 14 21 20 32 16 10 -4 14 -2 10 4 -4 6 0 14 9 17 24 9
29 0 13 -21 -13 -16 -12 -17 4 -4 9 7 16 21 15 30 -2 9 3 15 10 13 6 -1 12 1
12 6 0 4 21 19 48 32 26 14 50 30 54 35 5 7 8 7 8 0 0 -6 3 -6 8 0 16 23 224
155 234 149 7 -4 8 -2 4 4 -4 6 4 16 16 23 13 7 27 18 31 25 4 8 12 14 18 14
8 0 37 22 142 106 9 8 21 14 25 14 4 0 16 11 26 25 10 14 22 25 26 25 3 0 29
21 56 46 27 25 63 55 79 65 17 10 26 19 21 19 -5 0 4 11 19 24 16 14 33 22 38
19 6 -3 7 -2 4 4 -8 13 67 86 77 76 4 -5 6 -1 4 7 -2 9 4 14 14 14 9 -1 14 4
12 10 -3 7 8 24 23 38 15 14 42 42 58 62 17 19 36 34 43 31 7 -3 11 -1 8 4 -3
5 6 21 19 37 14 16 25 32 25 37 0 4 6 7 14 7 8 0 18 5 22 12 5 7 2 8 -7 3 -8
-4 -1 6 15 23 22 24 32 29 39 20 6 -9 7 -7 3 6 -7 22 21 59 37 49 6 -4 7 -1 3
6 -9 13 22 54 34 46 4 -3 7 3 6 13 0 9 5 16 12 14 6 -1 11 2 10 6 -3 9 122
190 149 217 8 9 16 22 17 31 1 9 7 19 13 22 6 4 18 22 27 40 9 17 21 32 27 32
6 0 7 5 4 10 -3 6 1 13 9 16 9 3 14 9 11 14 -2 4 4 16 15 27 10 12 16 24 13
27 -4 3 -1 6 6 6 7 0 10 4 6 9 -3 5 2 16 10 24 8 9 15 20 15 24 0 5 8 18 18
29 10 10 20 24 21 29 12 37 22 56 28 52 5 -3 9 7 10 21 0 14 9 31 18 38 9 7
16 15 16 18 -3 21 0 26 11 20 6 -4 8 -3 4 4 -9 14 35 103 47 95 6 -3 7 -1 3 6
-4 6 -3 17 2 24 5 7 12 25 16 40 4 17 11 25 18 21 6 -4 8 -3 5 4 -9 14 3 43
14 36 5 -3 6 -10 3 -16 -4 -7 -2 -8 5 -4 9 6 9 11 1 21 -14 17 -3 58 12 49 7
-4 8 -2 4 5 -4 6 -2 18 4 26 7 8 9 15 4 15 -5 0 -1 5 9 11 11 7 16 17 12 28
-3 10 1 24 9 30 8 7 12 19 9 27 -3 8 0 14 6 14 6 0 10 3 10 7 -1 5 0 10 1 13
1 3 4 19 6 35 3 17 11 35 19 41 8 6 12 13 9 16 -2 3 4 30 15 59 11 30 29 87
40 128 11 40 26 80 33 89 9 11 9 14 1 9 -9 -6 -10 0 -1 25 6 18 14 37 19 42 4
5 5 15 2 24 -5 11 -3 13 7 7 9 -5 11 -4 6 4 -11 17 3 89 21 106 9 9 10 15 3
15 -6 0 -8 4 -5 10 3 5 8 18 9 27 2 10 7 36 11 58 3 22 14 49 23 60 16 19 16
19 -2 5 -18 -14 -19 -13 -13 3 4 10 7 23 7 28 0 6 4 8 8 5 4 -2 14 0 22 5 12
8 11 9 -5 7 -11 -2 -19 2 -18 7 1 6 4 30 8 55 4 25 7 50 8 55 1 6 7 13 12 17
6 5 5 8 -3 8 -7 0 -11 4 -8 8 10 17 31 218 40 382 1 19 5 41 9 48 5 7 3 12 -3
12 -7 0 -8 6 -1 18 5 10 6 24 1 32 -4 7 -6 19 -3 25 8 23 8 235 -1 235 -5 0
-3 6 3 13 6 8 8 17 4 20 -3 4 -7 35 -9 69 -5 124 -14 230 -19 239 -4 5 0 9 7
9 8 0 9 3 3 8 -5 4 -11 12 -11 17 -1 6 -5 35 -9 65 -14 110 -13 102 -50 305
-3 17 -12 63 -21 102 -8 40 -12 78 -8 84 4 8 3 9 -4 5 -7 -4 -13 0 -14 11 -2
31 -11 59 -26 87 -3 5 0 6 7 2 7 -5 7 4 -3 26 -14 32 -56 160 -60 182 -4 22
-18 62 -33 94 -8 18 -12 40 -9 48 3 9 1 12 -4 9 -9 -5 -15 27 -7 40 1 2 -7 11
-18 19 -11 9 -17 16 -13 16 4 0 -4 26 -17 57 -14 31 -23 63 -20 70 2 8 1 12
-4 9 -4 -3 -19 21 -33 53 -19 44 -23 62 -14 71 8 8 7 10 -4 6 -11 -4 -28 23
-65 100 -27 58 -49 110 -48 115 2 5 -1 9 -7 9 -13 0 -51 80 -43 93 3 6 1 7 -5
3 -6 -4 -24 19 -44 56 -18 34 -32 63 -31 65 1 1 -9 15 -23 30 -13 15 -22 33
-20 40 3 7 0 12 -7 10 -7 -1 -11 6 -11 15 1 10 -1 16 -5 13 -8 -4 -47 56 -43
68 1 4 -2 7 -7 7 -7 0 -75 93 -116 159 -5 9 -12 18 -15 21 -5 4 -38 47 -85
108 -5 7 -18 21 -27 30 -10 9 -18 19 -18 23 0 9 -47 65 -77 92 -13 11 -23 24
-23 28 0 4 -20 28 -45 54 -25 25 -42 51 -39 57 4 6 3 8 -4 4 -6 -3 -30 15 -54
40 -54 59 -54 58 -122 122 -31 29 -53 58 -50 64 4 7 2 8 -4 4 -7 -4 -22 3 -35
16 -13 13 -46 42 -73 65 -88 74 -99 85 -96 95 1 5 -1 7 -6 4 -4 -2 -26 10 -48
27 -23 18 -56 43 -74 57 -18 14 -38 30 -44 35 -6 6 -31 23 -56 40 -25 16 -47
33 -50 36 -3 3 -20 14 -37 24 -18 11 -33 23 -33 27 0 4 -4 8 -10 8 -5 0 -58
32 -116 70 -59 39 -111 70 -115 70 -4 0 -36 17 -70 38 -35 21 -103 58 -151 82
-47 25 -84 49 -81 54 3 5 1 6 -5 2 -15 -9 -113 35 -105 47 3 6 1 7 -5 3 -14
-8 -164 58 -155 69 5 4 3 5 -3 2 -6 -3 -56 10 -112 30 -90 32 -101 38 -90 52
11 14 11 14 -4 3 -14 -11 -26 -11 -72 4 -30 10 -54 20 -52 23 2 3 -15 7 -37 8
-23 1 -43 6 -45 12 -2 6 -7 9 -12 6 -5 -3 -28 1 -52 9 -70 24 -212 58 -378 91
-8 1 -49 8 -90 15 -41 6 -86 14 -100 16 -14 2 -50 7 -80 10 -30 3 -66 7 -80
10 -14 2 -70 7 -125 10 -55 4 -103 12 -107 18 -5 6 -8 7 -8 1 0 -10 -399 -11
-425 -1 -6 2 -17 1 -24 -4z"/>
<path d="M9470 3961 c0 -6 4 -13 10 -16 6 -3 7 1 4 9 -7 18 -14 21 -14 7z"/>
<path d="M9430 3859 c0 -5 5 -7 10 -4 6 3 10 8 10 11 0 2 -4 4 -10 4 -5 0 -10
-5 -10 -11z"/>
<path d="M9405 3720 c-3 -6 1 -7 9 -4 18 7 21 14 7 14 -6 0 -13 -4 -16 -10z"/>
<path d="M9387 3679 c7 -7 15 -10 18 -7 3 3 -2 9 -12 12 -14 6 -15 5 -6 -5z"/>
<path d="M9375 3640 c-3 -5 -1 -10 4 -10 6 0 11 5 11 10 0 6 -2 10 -4 10 -3 0
-8 -4 -11 -10z"/>
<path d="M9266 3318 c3 -5 10 -6 15 -3 13 9 11 12 -6 12 -8 0 -12 -4 -9 -9z"/>
<path d="M965 3300 c-3 -6 1 -7 9 -4 18 7 21 14 7 14 -6 0 -13 -4 -16 -10z"/>
<path d="M1035 3160 c-3 -5 -1 -10 4 -10 6 0 11 5 11 10 0 6 -2 10 -4 10 -3 0
-8 -4 -11 -10z"/>
<path d="M9176 3142 c-3 -5 1 -9 9 -9 8 0 12 4 9 9 -3 4 -7 8 -9 8 -2 0 -6 -4
-9 -8z"/>
<path d="M1095 3100 c-3 -5 -1 -10 4 -10 6 0 11 5 11 10 0 6 -2 10 -4 10 -3 0
-8 -4 -11 -10z"/>
<path d="M9139 3068 c-5 -18 -6 -38 -1 -34 7 8 12 36 6 36 -2 0 -4 -1 -5 -2z"/>
<path d="M9090 3020 c0 -5 5 -10 11 -10 5 0 7 5 4 10 -3 6 -8 10 -11 10 -2 0
-4 -4 -4 -10z"/>
<path d="M9095 2881 c-3 -5 -2 -12 3 -15 5 -3 9 1 9 9 0 17 -3 19 -12 6z"/>
<path d="M8995 2820 c3 -5 8 -10 11 -10 2 0 4 5 4 10 0 6 -5 10 -11 10 -5 0
-7 -4 -4 -10z"/>
<path d="M1276 2727 c3 -10 9 -15 12 -12 3 3 0 11 -7 18 -10 9 -11 8 -5 -6z"/>
<path d="M8890 2659 c0 -5 5 -7 10 -4 6 3 10 8 10 11 0 2 -4 4 -10 4 -5 0 -10
-5 -10 -11z"/>
<path d="M1330 2640 c0 -5 5 -10 11 -10 5 0 7 5 4 10 -3 6 -8 10 -11 10 -2 0
-4 -4 -4 -10z"/>
<path d="M8850 2580 c0 -5 5 -10 11 -10 5 0 7 5 4 10 -3 6 -8 10 -11 10 -2 0
-4 -4 -4 -10z"/>
<path d="M1395 2571 c-3 -5 -2 -12 3 -15 5 -3 9 1 9 9 0 17 -3 19 -12 6z"/>
<path d="M1456 2453 c-6 -14 -5 -15 5 -6 7 7 10 15 7 18 -3 3 -9 -2 -12 -12z"/>
<path d="M8766 2462 c-3 -5 1 -9 9 -9 8 0 12 4 9 9 -3 4 -7 8 -9 8 -2 0 -6 -4
-9 -8z"/>
<path d="M8719 2393 c-13 -16 -12 -17 4 -4 16 13 21 21 13 21 -2 0 -10 -8 -17
-17z"/>
<path d="M1536 2342 c-2 -4 -1 -14 4 -22 7 -11 9 -9 7 8 -1 24 -3 26 -11 14z"/>
<path d="M8633 2315 c0 -8 4 -12 9 -9 5 3 6 10 3 15 -9 13 -12 11 -12 -6z"/>
<path d="M8557 2213 c-10 -9 -9 -23 1 -23 5 0 9 7 9 15 0 17 -1 18 -10 8z"/>
<path d="M1655 2200 c-3 -5 -1 -10 4 -10 6 0 11 5 11 10 0 6 -2 10 -4 10 -3 0
-8 -4 -11 -10z"/>
<path d="M8490 2139 c0 -5 5 -7 10 -4 6 3 10 8 10 11 0 2 -4 4 -10 4 -5 0 -10
-5 -10 -11z"/>
<path d="M8495 2111 c-3 -5 -2 -12 3 -15 5 -3 9 1 9 9 0 17 -3 19 -12 6z"/>
<path d="M8519 2073 c-13 -16 -12 -17 4 -4 16 13 21 21 13 21 -2 0 -10 -8 -17
-17z"/>
<path d="M1800 2060 c8 -5 20 -10 25 -10 6 0 3 5 -5 10 -8 5 -19 10 -25 10 -5
0 -3 -5 5 -10z"/>
<path d="M8375 2020 c-3 -5 -1 -10 4 -10 6 0 11 5 11 10 0 6 -2 10 -4 10 -3 0
-8 -4 -11 -10z"/>
<path d="M8373 1985 c0 -8 4 -12 9 -9 5 3 6 10 3 15 -9 13 -12 11 -12 -6z"/>
<path d="M1850 1979 c0 -5 5 -7 10 -4 6 3 10 8 10 11 0 2 -4 4 -10 4 -5 0 -10
-5 -10 -11z"/>
<path d="M8335 1980 c-3 -5 -1 -10 4 -10 6 0 11 5 11 10 0 6 -2 10 -4 10 -3 0
-8 -4 -11 -10z"/>
<path d="M1895 1940 c3 -5 8 -10 11 -10 2 0 4 5 4 10 0 6 -5 10 -11 10 -5 0
-7 -4 -4 -10z"/>
<path d="M8301 1916 c-9 -11 -9 -16 1 -22 7 -4 10 -4 6 1 -4 4 -3 14 3 22 6 7
9 13 6 13 -2 0 -10 -6 -16 -14z"/>
<path d="M1955 1911 c-3 -5 -2 -12 3 -15 5 -3 9 1 9 9 0 17 -3 19 -12 6z"/>
<path d="M8233 1865 c0 -8 4 -12 9 -9 5 3 6 10 3 15 -9 13 -12 11 -12 -6z"/>
<path d="M1999 1793 c-13 -16 -12 -17 4 -4 9 7 17 15 17 17 0 8 -8 3 -21 -13z"/>
<path d="M2126 1762 c-3 -5 1 -9 9 -9 8 0 12 4 9 9 -3 4 -7 8 -9 8 -2 0 -6 -4
-9 -8z"/>
<path d="M8104 1762 c4 -3 14 -7 22 -8 9 -1 13 0 10 4 -4 3 -14 7 -22 8 -9 1
-13 0 -10 -4z"/>
<path d="M8115 1731 c-3 -5 -2 -12 3 -15 5 -3 9 1 9 9 0 17 -3 19 -12 6z"/>
<path d="M8040 1700 c-9 -6 -10 -10 -3 -10 6 0 15 5 18 10 8 12 4 12 -15 0z"/>
<path d="M8113 1675 c0 -8 4 -12 9 -9 5 3 6 10 3 15 -9 13 -12 11 -12 -6z"/>
<path d="M2230 1666 c0 -2 7 -7 16 -10 8 -3 12 -2 9 4 -6 10 -25 14 -25 6z"/>
<path d="M7970 1619 c0 -5 5 -7 10 -4 6 3 10 8 10 11 0 2 -4 4 -10 4 -5 0 -10
-5 -10 -11z"/>
<path d="M8016 1622 c-3 -5 1 -9 9 -9 8 0 12 4 9 9 -3 4 -7 8 -9 8 -2 0 -6 -4
-9 -8z"/>
<path d="M2299 1608 c-5 -18 -6 -38 -1 -34 7 8 12 36 6 36 -2 0 -4 -1 -5 -2z"/>
<path d="M7870 1576 c0 -2 8 -10 18 -17 15 -13 16 -12 3 4 -13 16 -21 21 -21
13z"/>
<path d="M2455 1460 c3 -5 8 -10 11 -10 2 0 4 5 4 10 0 6 -5 10 -11 10 -5 0
-7 -4 -4 -10z"/>
<path d="M7740 1460 c-9 -6 -10 -10 -3 -10 6 0 15 5 18 10 8 12 4 12 -15 0z"/>
<path d="M7795 1460 c-3 -5 -1 -10 4 -10 6 0 11 5 11 10 0 6 -2 10 -4 10 -3 0
-8 -4 -11 -10z"/>
<path d="M2550 1376 c0 -2 8 -10 18 -17 15 -13 16 -12 3 4 -13 16 -21 21 -21
13z"/>
<path d="M7590 1369 c0 -5 5 -7 10 -4 6 3 10 8 10 11 0 2 -4 4 -10 4 -5 0 -10
-5 -10 -11z"/>
<path d="M2636 1338 c3 -5 10 -6 15 -3 13 9 11 12 -6 12 -8 0 -12 -4 -9 -9z"/>
<path d="M2650 1299 c0 -5 5 -7 10 -4 6 3 10 8 10 11 0 2 -4 4 -10 4 -5 0 -10
-5 -10 -11z"/>
<path d="M7570 1300 c0 -5 5 -10 11 -10 5 0 7 5 4 10 -3 6 -8 10 -11 10 -2 0
-4 -4 -4 -10z"/>
<path d="M7384 1238 l-19 -23 23 19 c12 11 22 21 22 23 0 8 -8 2 -26 -19z"/>
<path d="M2785 1240 c-3 -6 1 -7 9 -4 18 7 21 14 7 14 -6 0 -13 -4 -16 -10z"/>
<path d="M2815 1231 c-3 -5 -2 -12 3 -15 5 -3 9 1 9 9 0 17 -3 19 -12 6z"/>
<path d="M2873 1215 c0 -8 4 -12 9 -9 5 3 6 10 3 15 -9 13 -12 11 -12 -6z"/>
<path d="M2675 1209 c-4 -6 -5 -12 -2 -15 2 -3 7 2 10 11 7 17 1 20 -8 4z"/>
<path d="M2953 1167 c0 -8 6 -14 14 -14 9 0 10 4 2 14 -6 7 -12 13 -14 13 -1
0 -2 -6 -2 -13z"/>
<path d="M7354 1169 c-3 -6 -2 -15 3 -20 5 -5 9 -1 9 11 0 23 -2 24 -12 9z"/>
<path d="M7290 1140 c0 -5 5 -10 11 -10 5 0 7 5 4 10 -3 6 -8 10 -11 10 -2 0
-4 -4 -4 -10z"/>
<path d="M2996 1118 c3 -5 10 -6 15 -3 13 9 11 12 -6 12 -8 0 -12 -4 -9 -9z"/>
<path d="M3046 1122 c-3 -5 1 -9 9 -9 8 0 12 4 9 9 -3 4 -7 8 -9 8 -2 0 -6 -4
-9 -8z"/>
<path d="M3093 1095 c0 -8 4 -12 9 -9 5 3 6 10 3 15 -9 13 -12 11 -12 -6z"/>
<path d="M7210 1099 c0 -5 5 -7 10 -4 6 3 10 8 10 11 0 2 -4 4 -10 4 -5 0 -10
-5 -10 -11z"/>
<path d="M7353 1085 c0 -8 4 -12 9 -9 5 3 6 10 3 15 -9 13 -12 11 -12 -6z"/>
<path d="M3057 1063 c-9 -8 12 -33 27 -33 6 0 3 5 -7 11 -9 6 -15 14 -12 20 7
10 2 12 -8 2z"/>
<path d="M7130 1059 c0 -5 5 -7 10 -4 6 3 10 8 10 11 0 2 -4 4 -10 4 -5 0 -10
-5 -10 -11z"/>
<path d="M3027 1019 c7 -7 15 -10 18 -7 3 3 -2 9 -12 12 -14 6 -15 5 -6 -5z"/>
<path d="M3175 1020 c3 -5 8 -10 11 -10 2 0 4 5 4 10 0 6 -5 10 -11 10 -5 0
-7 -4 -4 -10z"/>
<path d="M3260 1006 c0 -2 8 -10 18 -17 15 -13 16 -12 3 4 -13 16 -21 21 -21
13z"/>
<path d="M6970 979 c0 -5 5 -7 10 -4 6 3 10 8 10 11 0 2 -4 4 -10 4 -5 0 -10
-5 -10 -11z"/>
<path d="M3210 976 c0 -2 8 -10 18 -17 15 -13 16 -12 3 4 -13 16 -21 21 -21
13z"/>
<path d="M3290 960 c0 -5 5 -10 11 -10 5 0 7 5 4 10 -3 6 -8 10 -11 10 -2 0
-4 -4 -4 -10z"/>
<path d="M6837 951 c-10 -12 -9 -13 3 -6 8 5 21 10 28 11 24 4 25 13 3 11 -12
-1 -28 -8 -34 -16z"/>
<path d="M7039 933 c-13 -16 -12 -17 4 -4 9 7 17 15 17 17 0 8 -8 3 -21 -13z"/>
<path d="M6775 920 c2 -27 10 -33 12 -10 1 11 -2 22 -6 24 -4 3 -7 -4 -6 -14z"/>
<path d="M3476 913 c-6 -14 -5 -15 5 -6 7 7 10 15 7 18 -3 3 -9 -2 -12 -12z"/>
<path d="M6846 918 c3 -5 10 -6 15 -3 13 9 11 12 -6 12 -8 0 -12 -4 -9 -9z"/>
<path d="M3415 900 c-3 -5 -1 -10 4 -10 6 0 11 5 11 10 0 6 -2 10 -4 10 -3 0
-8 -4 -11 -10z"/>
<path d="M6624 882 c4 -3 14 -7 22 -8 9 -1 13 0 10 4 -4 3 -14 7 -22 8 -9 1
-13 0 -10 -4z"/>
<path d="M3496 855 c-9 -26 -7 -32 5 -12 6 10 9 21 6 23 -2 3 -7 -2 -11 -11z"/>
<path d="M3606 838 c3 -5 10 -6 15 -3 13 9 11 12 -6 12 -8 0 -12 -4 -9 -9z"/>
<path d="M6560 840 c-9 -6 -10 -10 -3 -10 6 0 15 5 18 10 8 12 4 12 -15 0z"/>
<path d="M3653 825 c0 -8 4 -12 9 -9 5 3 6 10 3 15 -9 13 -12 11 -12 -6z"/>
<path d="M3415 800 c3 -5 8 -10 11 -10 2 0 4 5 4 10 0 6 -5 10 -11 10 -5 0 -7
-4 -4 -10z"/>
<path d="M3939 778 c-5 -9 -5 -48 -1 -43 6 6 11 45 5 45 -2 0 -4 -1 -4 -2z"/>
<path d="M6273 753 c0 -9 4 -10 14 -2 7 6 13 12 13 14 0 1 -6 2 -13 2 -8 0
-14 -6 -14 -14z"/>
<path d="M6386 762 c-3 -5 1 -9 9 -9 8 0 15 4 15 9 0 4 -4 8 -9 8 -6 0 -12 -4
-15 -8z"/>
<path d="M6467 759 c7 -7 15 -10 18 -7 3 3 -2 9 -12 12 -14 6 -15 5 -6 -5z"/>
<path d="M4033 745 c0 -8 4 -12 9 -9 5 3 6 10 3 15 -9 13 -12 11 -12 -6z"/>
<path d="M3836 742 c-3 -5 1 -9 9 -9 8 0 12 4 9 9 -3 4 -7 8 -9 8 -2 0 -6 -4
-9 -8z"/>
<path d="M3895 740 c3 -5 8 -10 11 -10 2 0 4 5 4 10 0 6 -5 10 -11 10 -5 0 -7
-4 -4 -10z"/>
<path d="M6086 725 c-11 -8 -15 -15 -9 -15 6 0 16 7 23 15 16 19 11 19 -14 0z"/>
<path d="M3975 720 c-3 -5 -1 -10 4 -10 6 0 11 5 11 10 0 6 -2 10 -4 10 -3 0
-8 -4 -11 -10z"/>
<path d="M6217 715 c-4 -8 -3 -16 1 -19 4 -3 9 4 9 15 2 23 -3 25 -10 4z"/>
<path d="M4090 699 c0 -5 5 -7 10 -4 6 3 10 8 10 11 0 2 -4 4 -10 4 -5 0 -10
-5 -10 -11z"/>
<path d="M4255 689 c-4 -6 -5 -12 -2 -15 2 -3 7 2 10 11 7 17 1 20 -8 4z"/>
<path d="M4150 678 c0 -4 4 -8 9 -8 6 0 12 4 15 8 3 5 -1 9 -9 9 -8 0 -15 -4
-15 -9z"/>
<path d="M4395 680 c-3 -5 -1 -10 4 -10 6 0 11 5 11 10 0 6 -2 10 -4 10 -3 0
-8 -4 -11 -10z"/>
<path d="M5986 678 c3 -5 10 -6 15 -3 13 9 11 12 -6 12 -8 0 -12 -4 -9 -9z"/>
<path d="M6070 686 c0 -2 7 -7 16 -10 8 -3 12 -2 9 4 -6 10 -25 14 -25 6z"/>
<path d="M4347 659 c7 -7 15 -10 18 -7 3 3 -2 9 -12 12 -14 6 -15 5 -6 -5z"/>
<path d="M4430 658 c0 -4 4 -8 9 -8 6 0 12 4 15 8 3 5 -1 9 -9 9 -8 0 -15 -4
-15 -9z"/>
<path d="M4514 653 c16 -20 36 -23 36 -6 0 4 -3 3 -7 0 -3 -4 -16 1 -27 10
-21 18 -21 18 -2 -4z"/>
<path d="M5830 658 c0 -4 4 -8 9 -8 6 0 12 4 15 8 3 5 -1 9 -9 9 -8 0 -15 -4
-15 -9z"/>
<path d="M4396 647 c3 -10 9 -15 12 -12 3 3 0 11 -7 18 -10 9 -11 8 -5 -6z"/>
<path d="M4674 634 c1 -8 4 -15 7 -16 2 -2 3 -1 2 1 -2 2 2 9 7 16 7 8 5 12
-4 12 -8 0 -13 -6 -12 -13z"/>
<path d="M4734 638 c-4 -7 -4 -10 1 -6 4 4 15 2 24 -5 14 -11 14 -10 2 6 -16
20 -18 21 -27 5z"/>
<path d="M5510 638 c0 -3 9 -6 20 -5 11 1 20 5 20 9 0 3 -9 6 -20 5 -11 -1
-20 -5 -20 -9z"/>
<path d="M5597 631 c-10 -14 -10 -14 4 -4 9 7 18 10 21 7 3 -3 8 -1 12 4 9 16
-24 9 -37 -7z"/>
<path d="M5905 640 c-3 -6 1 -7 9 -4 18 7 21 14 7 14 -6 0 -13 -4 -16 -10z"/>
<path d="M4789 623 c-13 -16 -12 -17 4 -4 16 13 21 21 13 21 -2 0 -10 -8 -17
-17z"/>
<path d="M5855 631 c-3 -5 -2 -12 3 -15 5 -3 9 1 9 9 0 17 -3 19 -12 6z"/>
<path d="M4495 620 c3 -5 8 -10 11 -10 2 0 4 5 4 10 0 6 -5 10 -11 10 -5 0 -7
-4 -4 -10z"/>
<path d="M5313 613 c0 -9 4 -10 14 -2 7 6 13 12 13 14 0 1 -6 2 -13 2 -8 0
-14 -6 -14 -14z"/>
<path d="M5380 626 c0 -2 8 -10 18 -17 15 -13 16 -12 3 4 -13 16 -21 21 -21
13z"/>
<path d="M4913 605 c0 -8 4 -12 9 -9 5 3 6 10 3 15 -9 13 -12 11 -12 -6z"/>
<path d="M4982 604 c10 -10 20 -16 22 -13 3 3 -5 11 -17 18 -21 13 -21 12 -5
-5z"/>
<path d="M5096 607 c3 -10 9 -15 12 -12 3 3 0 11 -7 18 -10 9 -11 8 -5 -6z"/>
<path d="M5495 600 c3 -5 8 -10 11 -10 2 0 4 5 4 10 0 6 -5 10 -11 10 -5 0 -7
-4 -4 -10z"/>
<path d="M5535 600 c3 -5 8 -10 11 -10 2 0 4 5 4 10 0 6 -5 10 -11 10 -5 0 -7
-4 -4 -10z"/>
<path d="M4855 591 c-3 -5 -2 -12 3 -15 5 -3 9 1 9 9 0 17 -3 19 -12 6z"/>
<path d="M4735 580 c3 -5 8 -10 11 -10 2 0 4 5 4 10 0 6 -5 10 -11 10 -5 0 -7
-4 -4 -10z"/>
<path d="M4815 580 c3 -5 8 -10 11 -10 2 0 4 5 4 10 0 6 -5 10 -11 10 -5 0 -7
-4 -4 -10z"/>
<path d="M5175 580 c3 -5 8 -10 11 -10 2 0 4 5 4 10 0 6 -5 10 -11 10 -5 0 -7
-4 -4 -10z"/>
<path d="M5210 579 c0 -5 5 -7 10 -4 6 3 10 8 10 11 0 2 -4 4 -10 4 -5 0 -10
-5 -10 -11z"/>
<path d="M5415 580 c3 -5 8 -10 11 -10 2 0 4 5 4 10 0 6 -5 10 -11 10 -5 0 -7
-4 -4 -10z"/>
<path d="M4470 561 c0 -6 4 -12 8 -15 5 -3 9 1 9 9 0 8 -4 15 -9 15 -4 0 -8
-4 -8 -9z"/>
<path d="M4950 566 c0 -2 7 -7 16 -10 8 -3 12 -2 9 4 -6 10 -25 14 -25 6z"/>
</g>
</svg>
